<svg width="21" height="19" viewBox="0 0 21 19" fill="none" xmlns="http://www.w3.org/2000/svg">
<g clip-path="url(#clip0_61385_198)">
<path d="M10.1948 0.762665C4.56529 0.762665 0 4.77359 0 9.72143C0 13.6788 2.92118 17.0361 6.97412 18.2218C7.48392 18.3043 7.67 18.0277 7.67 17.7901C7.67 17.5771 7.66108 17.0138 7.65598 16.2665C4.8202 16.8075 4.22118 15.0652 4.22118 15.0652C3.75853 14.0302 3.08941 13.7547 3.08941 13.7547C2.16284 13.1992 3.15824 13.2104 3.15824 13.2104C4.18167 13.2739 4.71951 14.1339 4.71951 14.1339C5.62951 15.5025 7.10667 15.1076 7.68784 14.8779C7.77961 14.299 8.04343 13.9041 8.33529 13.6799C6.07176 13.4535 3.69098 12.685 3.69098 9.25297C3.69098 8.27478 4.08863 7.47505 4.74118 6.8482C4.63539 6.62178 4.28618 5.71051 4.84059 4.47801C4.84059 4.47801 5.69706 4.23709 7.64451 5.39597C8.45765 5.19743 9.32941 5.09816 10.1974 5.09482C11.0627 5.09928 11.9358 5.19743 12.7502 5.39709C14.6964 4.2382 15.5516 4.47913 15.5516 4.47913C16.1073 5.71274 15.758 6.6229 15.6535 6.84932C16.3074 7.47616 16.7012 8.27589 16.7012 9.25409C16.7012 12.695 14.3178 13.4524 12.0467 13.6744C12.4125 13.951 12.7387 14.4975 12.7387 15.3329C12.7387 16.5309 12.726 17.4968 12.726 17.7901C12.726 18.0299 12.9095 18.3088 13.427 18.2207C17.4735 17.0339 20.3922 13.6777 20.3922 9.72143C20.3922 4.77359 15.8269 0.762665 10.1948 0.762665Z" fill="#C4C4CC"/>
</g>
<defs>
<clipPath id="clip0_61385_198">
<rect width="20.3922" height="17.8462" fill="white" transform="translate(0 0.576935)"/>
</clipPath>
</defs>
</svg>
